<mxfile host="app.diagrams.net" modified="2024-01-19T07:36:50.614Z" agent="Mozilla/5.0 (Windows NT 10.0; Win64; x64) AppleWebKit/537.36 (KHTML, like Gecko) Chrome/120.0.0.0 Safari/537.36 Edg/120.0.0.0" etag="Hi5itcGiayJ3-MKp5fw8" version="22.1.18" type="github">
  <diagram name="第 1 页" id="sc2p1u5gAOqfFjjmJYLN">
    <mxGraphModel dx="1662" dy="878" grid="1" gridSize="10" guides="1" tooltips="1" connect="1" arrows="1" fold="1" page="1" pageScale="1" pageWidth="827" pageHeight="1169" math="0" shadow="0">
      <root>
        <mxCell id="0" />
        <mxCell id="1" parent="0" />
        <mxCell id="G_l80I6SJxn5hfOqZydm-1" value="客戶" style="rounded=0;whiteSpace=wrap;html=1;" vertex="1" parent="1">
          <mxGeometry x="390" y="408" width="120" height="60" as="geometry" />
        </mxCell>
        <mxCell id="G_l80I6SJxn5hfOqZydm-101" style="edgeStyle=orthogonalEdgeStyle;rounded=0;orthogonalLoop=1;jettySize=auto;html=1;exitX=1;exitY=0.5;exitDx=0;exitDy=0;" edge="1" parent="1" source="G_l80I6SJxn5hfOqZydm-4" target="G_l80I6SJxn5hfOqZydm-5">
          <mxGeometry relative="1" as="geometry" />
        </mxCell>
        <mxCell id="G_l80I6SJxn5hfOqZydm-4" value="臨時坐席" style="whiteSpace=wrap;html=1;rounded=0;" vertex="1" parent="1">
          <mxGeometry x="827" y="408" width="120" height="60" as="geometry" />
        </mxCell>
        <mxCell id="G_l80I6SJxn5hfOqZydm-103" style="edgeStyle=orthogonalEdgeStyle;rounded=0;orthogonalLoop=1;jettySize=auto;html=1;exitX=1;exitY=0.5;exitDx=0;exitDy=0;entryX=0;entryY=0.5;entryDx=0;entryDy=0;" edge="1" parent="1" source="G_l80I6SJxn5hfOqZydm-5" target="G_l80I6SJxn5hfOqZydm-10">
          <mxGeometry relative="1" as="geometry" />
        </mxCell>
        <mxCell id="G_l80I6SJxn5hfOqZydm-104" value="是" style="edgeLabel;html=1;align=center;verticalAlign=middle;resizable=0;points=[];" vertex="1" connectable="0" parent="G_l80I6SJxn5hfOqZydm-103">
          <mxGeometry x="-0.0831" relative="1" as="geometry">
            <mxPoint as="offset" />
          </mxGeometry>
        </mxCell>
        <mxCell id="G_l80I6SJxn5hfOqZydm-105" style="edgeStyle=orthogonalEdgeStyle;rounded=0;orthogonalLoop=1;jettySize=auto;html=1;exitX=0.5;exitY=1;exitDx=0;exitDy=0;" edge="1" parent="1" source="G_l80I6SJxn5hfOqZydm-5">
          <mxGeometry relative="1" as="geometry">
            <mxPoint x="700" y="470" as="targetPoint" />
            <Array as="points">
              <mxPoint x="1075" y="520" />
              <mxPoint x="700" y="520" />
            </Array>
          </mxGeometry>
        </mxCell>
        <mxCell id="G_l80I6SJxn5hfOqZydm-108" value="技能轉移" style="edgeLabel;html=1;align=center;verticalAlign=middle;resizable=0;points=[];" vertex="1" connectable="0" parent="G_l80I6SJxn5hfOqZydm-105">
          <mxGeometry x="-0.0887" y="1" relative="1" as="geometry">
            <mxPoint as="offset" />
          </mxGeometry>
        </mxCell>
        <mxCell id="G_l80I6SJxn5hfOqZydm-106" style="edgeStyle=orthogonalEdgeStyle;rounded=0;orthogonalLoop=1;jettySize=auto;html=1;exitX=0.5;exitY=1;exitDx=0;exitDy=0;entryX=1;entryY=0.25;entryDx=0;entryDy=0;" edge="1" parent="1" source="G_l80I6SJxn5hfOqZydm-5" target="G_l80I6SJxn5hfOqZydm-26">
          <mxGeometry relative="1" as="geometry" />
        </mxCell>
        <mxCell id="G_l80I6SJxn5hfOqZydm-107" value="否" style="edgeLabel;html=1;align=center;verticalAlign=middle;resizable=0;points=[];" vertex="1" connectable="0" parent="G_l80I6SJxn5hfOqZydm-106">
          <mxGeometry x="-0.8981" y="-1" relative="1" as="geometry">
            <mxPoint as="offset" />
          </mxGeometry>
        </mxCell>
        <mxCell id="G_l80I6SJxn5hfOqZydm-109" value="坐席轉移" style="edgeLabel;html=1;align=center;verticalAlign=middle;resizable=0;points=[];" vertex="1" connectable="0" parent="G_l80I6SJxn5hfOqZydm-106">
          <mxGeometry x="0.2881" y="1" relative="1" as="geometry">
            <mxPoint x="1" y="-2" as="offset" />
          </mxGeometry>
        </mxCell>
        <mxCell id="G_l80I6SJxn5hfOqZydm-5" value="同意人工留言" style="rhombus;whiteSpace=wrap;html=1;rounded=0;" vertex="1" parent="1">
          <mxGeometry x="1030" y="395.5" width="90" height="85" as="geometry" />
        </mxCell>
        <mxCell id="G_l80I6SJxn5hfOqZydm-100" style="edgeStyle=orthogonalEdgeStyle;rounded=0;orthogonalLoop=1;jettySize=auto;html=1;entryX=0;entryY=0.5;entryDx=0;entryDy=0;" edge="1" parent="1" source="G_l80I6SJxn5hfOqZydm-6" target="G_l80I6SJxn5hfOqZydm-4">
          <mxGeometry relative="1" as="geometry" />
        </mxCell>
        <mxCell id="G_l80I6SJxn5hfOqZydm-114" style="edgeStyle=orthogonalEdgeStyle;rounded=0;orthogonalLoop=1;jettySize=auto;html=1;exitX=0.5;exitY=1;exitDx=0;exitDy=0;" edge="1" parent="1" source="G_l80I6SJxn5hfOqZydm-6" target="G_l80I6SJxn5hfOqZydm-26">
          <mxGeometry relative="1" as="geometry" />
        </mxCell>
        <mxCell id="G_l80I6SJxn5hfOqZydm-6" value="IVR排隊" style="rounded=1;whiteSpace=wrap;html=1;" vertex="1" parent="1">
          <mxGeometry x="600" y="408" width="120" height="60" as="geometry" />
        </mxCell>
        <mxCell id="G_l80I6SJxn5hfOqZydm-43" style="edgeStyle=orthogonalEdgeStyle;rounded=0;orthogonalLoop=1;jettySize=auto;html=1;exitX=0.5;exitY=1;exitDx=0;exitDy=0;entryX=0.5;entryY=0;entryDx=0;entryDy=0;" edge="1" parent="1" source="G_l80I6SJxn5hfOqZydm-10" target="G_l80I6SJxn5hfOqZydm-21">
          <mxGeometry relative="1" as="geometry" />
        </mxCell>
        <mxCell id="G_l80I6SJxn5hfOqZydm-10" value="人工留言登記" style="rounded=1;whiteSpace=wrap;html=1;" vertex="1" parent="1">
          <mxGeometry x="1220" y="408" width="120" height="60" as="geometry" />
        </mxCell>
        <mxCell id="G_l80I6SJxn5hfOqZydm-111" style="edgeStyle=orthogonalEdgeStyle;rounded=0;orthogonalLoop=1;jettySize=auto;html=1;exitX=0;exitY=0.5;exitDx=0;exitDy=0;entryX=1;entryY=0.75;entryDx=0;entryDy=0;" edge="1" parent="1" source="G_l80I6SJxn5hfOqZydm-20">
          <mxGeometry relative="1" as="geometry">
            <mxPoint x="1060" y="741.12" as="sourcePoint" />
            <mxPoint x="720" y="617.995" as="targetPoint" />
            <Array as="points">
              <mxPoint x="970" y="730" />
              <mxPoint x="970" y="618" />
            </Array>
          </mxGeometry>
        </mxCell>
        <mxCell id="G_l80I6SJxn5hfOqZydm-20" value="留言分配" style="rounded=1;whiteSpace=wrap;html=1;" vertex="1" parent="1">
          <mxGeometry x="1015" y="700" width="120" height="60" as="geometry" />
        </mxCell>
        <mxCell id="G_l80I6SJxn5hfOqZydm-110" value="" style="edgeStyle=orthogonalEdgeStyle;rounded=0;orthogonalLoop=1;jettySize=auto;html=1;" edge="1" parent="1" source="G_l80I6SJxn5hfOqZydm-21" target="G_l80I6SJxn5hfOqZydm-20">
          <mxGeometry relative="1" as="geometry" />
        </mxCell>
        <mxCell id="G_l80I6SJxn5hfOqZydm-21" value="留言池" style="swimlane;whiteSpace=wrap;html=1;startSize=23;" vertex="1" parent="1">
          <mxGeometry x="1210" y="585" width="140" height="110" as="geometry" />
        </mxCell>
        <mxCell id="G_l80I6SJxn5hfOqZydm-24" value="開始" style="ellipse;whiteSpace=wrap;html=1;aspect=fixed;" vertex="1" parent="1">
          <mxGeometry x="415" y="260" width="70" height="70" as="geometry" />
        </mxCell>
        <mxCell id="G_l80I6SJxn5hfOqZydm-25" value="" style="endArrow=none;dashed=1;html=1;rounded=0;exitX=0.5;exitY=1;exitDx=0;exitDy=0;" edge="1" parent="1" source="G_l80I6SJxn5hfOqZydm-24" target="G_l80I6SJxn5hfOqZydm-1">
          <mxGeometry width="50" height="50" relative="1" as="geometry">
            <mxPoint x="345" y="395" as="sourcePoint" />
            <mxPoint x="395" y="345" as="targetPoint" />
          </mxGeometry>
        </mxCell>
        <mxCell id="G_l80I6SJxn5hfOqZydm-112" style="edgeStyle=orthogonalEdgeStyle;rounded=0;orthogonalLoop=1;jettySize=auto;html=1;exitX=0.5;exitY=1;exitDx=0;exitDy=0;entryX=0.5;entryY=0;entryDx=0;entryDy=0;" edge="1" parent="1" source="G_l80I6SJxn5hfOqZydm-26" target="G_l80I6SJxn5hfOqZydm-27">
          <mxGeometry relative="1" as="geometry" />
        </mxCell>
        <mxCell id="G_l80I6SJxn5hfOqZydm-26" value="熱線坐席" style="whiteSpace=wrap;html=1;rounded=0;" vertex="1" parent="1">
          <mxGeometry x="600" y="570" width="120" height="62.5" as="geometry" />
        </mxCell>
        <mxCell id="G_l80I6SJxn5hfOqZydm-113" style="edgeStyle=orthogonalEdgeStyle;rounded=0;orthogonalLoop=1;jettySize=auto;html=1;exitX=0.5;exitY=1;exitDx=0;exitDy=0;" edge="1" parent="1" source="G_l80I6SJxn5hfOqZydm-27" target="G_l80I6SJxn5hfOqZydm-28">
          <mxGeometry relative="1" as="geometry" />
        </mxCell>
        <mxCell id="G_l80I6SJxn5hfOqZydm-27" value="業務處理" style="whiteSpace=wrap;html=1;rounded=1;" vertex="1" parent="1">
          <mxGeometry x="600" y="710" width="120" height="60" as="geometry" />
        </mxCell>
        <mxCell id="G_l80I6SJxn5hfOqZydm-28" value="結束" style="ellipse;whiteSpace=wrap;html=1;rounded=1;" vertex="1" parent="1">
          <mxGeometry x="627.5" y="840" width="65" height="60" as="geometry" />
        </mxCell>
        <mxCell id="G_l80I6SJxn5hfOqZydm-34" value="來電" style="endArrow=open;endSize=12;dashed=1;html=1;rounded=0;exitX=1;exitY=0.5;exitDx=0;exitDy=0;" edge="1" parent="1" target="G_l80I6SJxn5hfOqZydm-6" source="G_l80I6SJxn5hfOqZydm-1">
          <mxGeometry x="-0.3333" width="160" relative="1" as="geometry">
            <mxPoint x="365" y="295" as="sourcePoint" />
            <mxPoint x="380" y="345" as="targetPoint" />
            <mxPoint as="offset" />
          </mxGeometry>
        </mxCell>
        <mxCell id="G_l80I6SJxn5hfOqZydm-86" value="監控大屏提示" style="rounded=1;whiteSpace=wrap;html=1;" vertex="1" parent="1">
          <mxGeometry x="610" y="270" width="120" height="60" as="geometry" />
        </mxCell>
        <mxCell id="G_l80I6SJxn5hfOqZydm-87" value="坐席管理人&lt;br&gt;管理臨時坐席" style="whiteSpace=wrap;html=1;rounded=1;" vertex="1" parent="1">
          <mxGeometry x="827" y="270" width="120" height="60" as="geometry" />
        </mxCell>
        <mxCell id="G_l80I6SJxn5hfOqZydm-88" value="" style="endArrow=block;dashed=1;endFill=0;endSize=12;html=1;rounded=0;entryX=0;entryY=0.5;entryDx=0;entryDy=0;exitX=1;exitY=0.5;exitDx=0;exitDy=0;" edge="1" parent="1" target="G_l80I6SJxn5hfOqZydm-87" source="G_l80I6SJxn5hfOqZydm-86">
          <mxGeometry width="160" relative="1" as="geometry">
            <mxPoint x="180" y="245" as="sourcePoint" />
            <mxPoint x="330" y="245" as="targetPoint" />
          </mxGeometry>
        </mxCell>
        <mxCell id="G_l80I6SJxn5hfOqZydm-91" style="edgeStyle=orthogonalEdgeStyle;rounded=0;orthogonalLoop=1;jettySize=auto;html=1;exitX=0.5;exitY=1;exitDx=0;exitDy=0;" edge="1" parent="1" source="G_l80I6SJxn5hfOqZydm-26" target="G_l80I6SJxn5hfOqZydm-26">
          <mxGeometry relative="1" as="geometry" />
        </mxCell>
        <mxCell id="G_l80I6SJxn5hfOqZydm-115" value="" style="endArrow=block;dashed=1;endFill=0;endSize=12;html=1;rounded=0;exitX=0.5;exitY=0.033;exitDx=0;exitDy=0;entryX=0.444;entryY=1.004;entryDx=0;entryDy=0;entryPerimeter=0;exitPerimeter=0;" edge="1" parent="1" source="G_l80I6SJxn5hfOqZydm-6" target="G_l80I6SJxn5hfOqZydm-86">
          <mxGeometry width="160" relative="1" as="geometry">
            <mxPoint x="600" y="428" as="sourcePoint" />
            <mxPoint x="680" y="320" as="targetPoint" />
          </mxGeometry>
        </mxCell>
        <mxCell id="G_l80I6SJxn5hfOqZydm-116" value="" style="endArrow=block;dashed=1;endFill=0;endSize=12;html=1;rounded=0;exitX=0.5;exitY=1;exitDx=0;exitDy=0;entryX=0.5;entryY=0;entryDx=0;entryDy=0;" edge="1" parent="1" source="G_l80I6SJxn5hfOqZydm-87" target="G_l80I6SJxn5hfOqZydm-4">
          <mxGeometry width="160" relative="1" as="geometry">
            <mxPoint x="720" y="418" as="sourcePoint" />
            <mxPoint x="800" y="310" as="targetPoint" />
          </mxGeometry>
        </mxCell>
      </root>
    </mxGraphModel>
  </diagram>
</mxfile>
